<svg version="1.2" xmlns="http://www.w3.org/2000/svg" viewBox="0 0 1920 1080" width="1920" height="1080">
	<title>Nový projekt</title>
	<style>
		.s0 { fill: #000000;stroke: #ffffff;stroke-miterlimit:100;stroke-width: 20 } 
		.s1 { fill: none;stroke: #ffffff;stroke-miterlimit:100;stroke-width: 20 } 
	</style>
	<path id="Background" class="s0" d=""/>
	<path id="Tvar 1" class="s1" d="m1170 339v362c0 10.5-8.5 19-19 19h-262c-10.5 0-19-8.5-19-19v-362c0-10.5 8.5-19 19-19h262c10.5 0 19 8.5 19 19zm-356.8-1.1l106.7 293.1c3.6 9.9-1.5 20.8-11.4 24.4l-210.9 76.8c-9.9 3.6-20.8-1.5-24.4-11.4l-106.7-293.2c-3.6-9.8 1.5-20.7 11.4-24.3l210.9-76.8c9.9-3.6 20.8 1.5 24.4 11.4zm0 0l106.7 293.1c3.6 9.9-1.5 20.8-11.4 24.4l-210.9 76.8c-9.9 3.6-20.8-1.5-24.4-11.4l-106.7-293.2c-3.6-9.8 1.5-20.7 11.4-24.3l210.9-76.8c9.9-3.6 20.8 1.5 24.4 11.4zm666.7 89.7l-106.7 293.2c-3.6 9.9-14.5 15-24.4 11.4l-210.9-76.8c-9.9-3.6-15-14.5-11.4-24.4l106.7-293.1c3.6-9.9 14.5-15 24.4-11.4l210.9 76.8c9.9 3.6 15 14.5 11.4 24.3z"/>
	<path id="Tvar 2" fill-rule="evenodd" class="s1" d="m1170 339v362c0 10.5-8.5 19-19 19h-262c-10.5 0-19-8.5-19-19v-362c0-10.5 8.5-19 19-19h262c10.5 0 19 8.5 19 19z"/>
</svg>